<svg width="175" height="170" viewBox="0 0 175 170" fill="none" xmlns="http://www.w3.org/2000/svg">
<rect width="175" height="169.444" rx="20" fill="white"/>
<path d="M112.212 21.6057C111.496 21.2529 110.784 21.2592 110.074 20.9063C76.5204 12.5848 37.5332 33.4088 17.1932 68.7867C31.5362 57.0591 49.4098 50.6035 67.8752 50.4812C73.5903 50.4275 79.2955 50.9748 84.8983 52.1143L84.3605 52.0221C86.5692 52.4985 88.4851 53.0971 90.3232 53.8504L90.0907 53.767C89.5384 54.801 88.9302 55.8036 88.269 56.7704L88.3359 56.6615C70.7783 83.9366 51.6241 107.731 30.257 129.299L30.1953 129.363C50.4307 115.284 68.0956 100.721 84.5053 84.8578L84.2867 85.065C69.5739 108.689 54.2798 129.24 37.4755 148.413L37.8504 147.976C42.2576 145.235 46.0702 142.362 49.6031 139.184L49.5077 139.264C74.3398 120.231 95.9078 99.003 114.657 75.4115L115.171 74.7399C126.384 92.9572 127.317 118.455 115.79 144.422C112.856 150.881 109.268 157.017 105.083 162.731L105.267 162.467C122.952 150.783 136.677 134.368 144.86 115.021L145.12 114.334C149.776 104.641 152.456 93.25 152.349 81.2278C152.242 69.2056 149.366 57.8636 144.336 47.8121L144.538 48.255L144.535 47.8901C144.16 47.0612 143.673 46.3529 143.091 45.748L143.091 45.7538C138.742 37.1727 133.974 20.3291 151.672 10.8338C156.635 8.28132 133.448 3.81836 112.234 21.5997L112.212 21.6057Z" fill="#040404"/>
</svg>
